<?xml version="1.0" encoding="utf-8"?>
<!-- Generator: Adobe Illustrator 22.1.0, SVG Export Plug-In . SVG Version: 6.00 Build 0)  -->
<svg version="1.1" id="Layer_1" xmlns="http://www.w3.org/2000/svg" xmlns:xlink="http://www.w3.org/1999/xlink" x="0px" y="0px"
	 viewBox="0 0 32 32" style="enable-background:new 0 0 32 32;" xml:space="preserve">
<title>postman</title>
<path d="M18,0.1C9.3-1,1.3,5.2,0.1,14C-1,22.7,5.2,30.7,14,31.9C22.7,33,30.7,26.8,31.9,18C33,9.3,26.8,1.3,18,0.1z M21.3,10.1
	c-0.3,0-0.6,0.1-0.8,0.3l-5.9,5.9L14.2,16l-0.9-0.9C19.2,9.3,20.2,9.2,21.3,10.1L21.3,10.1z M14.8,16.6l5.9-5.9
	c0.3-0.3,0.9-0.3,1.2,0c0.3,0.3,0.3,0.9-0.1,1.2l-6.3,5.5L14.8,16.6z M15.3,17.5l-1.5,0.3c0,0-0.1,0-0.1,0c0,0,0-0.1,0-0.1l0.9-0.9
	L15.3,17.5z M11.5,16.9l1.6-1.6l1.2,1.2l-2.6,0.6c0,0-0.1,0-0.1-0.1C11.5,17,11.5,16.9,11.5,16.9z M6.7,25c-0.1,0-0.1-0.1-0.1-0.1
	c0,0,0,0,0-0.1h0l1.3-1.3l1.6,1.6L6.7,25z M9.9,23.3c-0.1,0.1-0.2,0.2-0.2,0.3l0.3,1.2c0,0.2-0.2,0.3-0.3,0.2h0l-1.6-1.6l5-5
	l2.4-0.5l1.2,1.2C15,20.4,12.8,21.9,9.9,23.3L9.9,23.3z M17,18.7l-1.1-1.1l6.3-5.5c0.1-0.1,0.1-0.1,0.2-0.2
	C22.1,13.7,19.6,16.3,17,18.7z M21.8,10.1L21.8,10.1c-2.2-2.2,0.9-5.6,3.3-3.6L23,8.7c-0.1,0.1-0.1,0.2,0,0.2l1.7,1.7
	C23.7,11,22.6,10.9,21.8,10.1z M25.3,10.1c-0.1,0.1-0.2,0.2-0.4,0.3l-1.6-1.6l2-2C26.2,7.7,26.2,9.2,25.3,10.1z M25.1,8.1
	c-0.1,0-0.1,0.1-0.1,0.2c0.1,0.2,0.1,0.4-0.1,0.6c-0.1,0.1-0.1,0.2,0,0.3c0,0,0.1,0,0.1,0c0.1,0,0.1,0,0.1-0.1
	c0.2-0.3,0.3-0.7,0.1-1C25.3,8,25.2,8,25.1,8.1z"/>
</svg>
